<?xml version="1.0" standalone="no"?>
<!DOCTYPE svg PUBLIC "-//W3C//DTD SVG 20010904//EN"
 "http://www.w3.org/TR/2001/REC-SVG-20010904/DTD/svg10.dtd">
<svg version="1.0" xmlns="http://www.w3.org/2000/svg"
 width="75.000000pt" height="75.000000pt" viewBox="0 0 75.000000 75.000000"
 preserveAspectRatio="xMidYMid meet">
<metadata>
Created by potrace 1.11, written by Peter Selinger 2001-2013
</metadata>
<g transform="translate(0.000000,75.000000) scale(0.100000,-0.100000)"
fill="#000000" stroke="none">
<path d="M527 724 c-4 -4 -7 -119 -7 -256 0 -261 -3 -279 -49 -332 -55 -63
-177 -74 -245 -22 -20 15 -45 45 -56 67 -14 26 -27 39 -41 39 -77 0 32 -159
130 -188 116 -35 237 15 294 122 21 39 22 52 22 306 0 259 0 265 -20 268 -12
2 -24 0 -28 -4z"/>
</g>
</svg>
